<svg width="264" height="243" viewBox="0 0 264 243" version="1.1" xmlns="http://www.w3.org/2000/svg" xmlns:xlink="http://www.w3.org/1999/xlink">
<title>Group 2</title>
<desc>Created using Figma</desc>
<g id="Canvas" transform="translate(-624 985)">
<g id="Group 2">
<g id="Vector 3">
<use xlink:href="#path0_fill" transform="translate(673.187 -882.728)" fill="#65B330"/>
</g>
<g id="Vector 3">
<use xlink:href="#path1_fill" transform="translate(680.392 -875.349)" fill="#FFFFFF"/>
</g>
<g id="Vector 3.3">
<use xlink:href="#path1_fill" transform="translate(821.478 -875.453)" fill="#FFFFFF"/>
</g>
<g id="Vector 3.1">
<use xlink:href="#path1_fill" transform="translate(694.49 -875.453)" fill="#FFFFFF"/>
</g>
<g id="Vector 3.2">
<use xlink:href="#path1_fill" transform="translate(807.275 -875.453)" fill="#FFFFFF"/>
</g>
<g id="Vector">
<use xlink:href="#path2_fill" transform="translate(624 -933.448)" fill="#65B330"/>
</g>
<g id="Vector 2">
<use xlink:href="#path3_fill" transform="translate(691.044 -985)" fill="#65B330"/>
</g>
<g id="Vector 3">
<use xlink:href="#path4_fill" transform="translate(730.832 -870.879)" fill="#FFFFFF"/>
</g>
<g id="Vector 4">
<use xlink:href="#path5_fill" transform="translate(650.003 -765.431)" fill="#65B330"/>
</g>
<g id="Rectangle 7">
<use xlink:href="#path6_fill" transform="translate(640.396 -752.393)" fill="#65B330"/>
</g>
</g>
</g>
<defs>
<path id="path0_fill" d="M 0 114.328L 0 0L 165.418 0L 165.418 114.536L 0 114.328Z"/>
<path id="path1_fill" d="M 10.0253 0L 0 0L 0 103.727L 10.0253 103.727L 10.0253 0Z"/>
<path id="path2_fill" d="M 63.0759 17.7729C 35.3392 23.4269 9.50316 8.24551 0 0C 3.17468 30.349 34.3924 44.5188 49.6044 47.8101L 214.709 47.8101C 250.884 38.9133 262.642 12.3683 264 0.20787C 234.425 21.5769 208.025 20.4059 198.522 17.1493C 155.462 17.1146 68.9032 17.0661 67.1487 17.1493C 65.3943 17.2324 63.7025 17.5997 63.0759 17.7729Z"/>
<path id="path3_fill" d="M 129.911 65.7908L 0 65.7908C 29.9089 57.9749 55.6266 18.6737 64.7468 0C 92.2329 50.3045 119.642 64.8208 129.911 65.7908Z"/>
<path id="path4_fill" d="M 50.1266 0L 0 0L 0 102.48L 7.51899 102.48L 7.51899 13.0958L 42.6076 13.0958L 42.6076 102.48L 50.1266 102.48L 50.1266 0Z"/>
<path id="path5_fill" d="M 211.576 10.1276L 0 10.1276C 8.35443 3.14317 12.3924 0.496295 13.3671 0.0459103C 74.4589 0.0112653 197.018 -0.0372377 198.522 0.0459103C 200.026 0.129058 207.851 6.80168 211.576 10.1276Z"/>
<path id="path6_fill" d="M 0 5.19675C 0 2.32666 2.32666 0 5.19675 0L 225.803 0C 228.673 0 231 2.32666 231 5.19675C 231 8.06683 228.673 10.3935 225.803 10.3935L 5.19675 10.3935C 2.32667 10.3935 0 8.06683 0 5.19675Z"/>
</defs>
</svg>
