<svg width="580" height="262" viewBox="0 0 580 262" version="1.1" xmlns="http://www.w3.org/2000/svg" xmlns:xlink="http://www.w3.org/1999/xlink">
<title>Group 13</title>
<desc>Created using Figma</desc>
<g id="Canvas" transform="translate(1665 171)">
<g id="Group 13">
<g id="Group 2">
<g id="Vector 3">
<use xlink:href="#path0_fill" transform="translate(-1299.81 -54.728)" fill="#65B330"/>
</g>
<g id="Vector 3">
<use xlink:href="#path1_fill" transform="translate(-1292.61 -47.3486)" fill="#FFFFFF"/>
</g>
<g id="Vector 3.3">
<use xlink:href="#path1_fill" transform="translate(-1151.52 -47.4525)" fill="#FFFFFF"/>
</g>
<g id="Vector 3.1">
<use xlink:href="#path1_fill" transform="translate(-1278.51 -47.4525)" fill="#FFFFFF"/>
</g>
<g id="Vector 3.2">
<use xlink:href="#path1_fill" transform="translate(-1165.72 -47.4525)" fill="#FFFFFF"/>
</g>
<g id="Vector">
<use xlink:href="#path2_fill" transform="translate(-1349 -105.448)" fill="#65B330"/>
</g>
<g id="Vector 2">
<use xlink:href="#path3_fill" transform="translate(-1281.96 -157)" fill="#65B330"/>
</g>
<g id="Vector 3">
<use xlink:href="#path4_fill" transform="translate(-1242.17 -42.8794)" fill="#FFFFFF"/>
</g>
<g id="Vector 4">
<use xlink:href="#path5_fill" transform="translate(-1323 62.5687)" fill="#65B330"/>
</g>
<g id="Rectangle 7">
<use xlink:href="#path6_fill" transform="translate(-1332.6 75.6065)" fill="#65B330"/>
</g>
</g>
<g id="Group 11">
<g id="Group 9">
<g id="Vector 3">
<use xlink:href="#path7_fill" transform="translate(-1590.12 -105.103)" fill="#EFF24C"/>
<use xlink:href="#path8_stroke" transform="translate(-1590.12 -105.103)"/>
</g>
</g>
<g id="Group 10">
<g id="Vector 2">
<use xlink:href="#path9_stroke" transform="translate(-1648.87 -108.397)"/>
</g>
<g id="Vector 3">
<use xlink:href="#path10_stroke" transform="translate(-1602.79 -153.427)"/>
</g>
<g id="Vector 4">
<use xlink:href="#path11_stroke" transform="translate(-1539.42 -171)"/>
</g>
<g id="Vector 5">
<use xlink:href="#path12_stroke" transform="translate(-1494.49 -152.329)"/>
</g>
<g id="Vector 6">
<use xlink:href="#path13_stroke" transform="translate(-1462.23 -107.299)"/>
</g>
<g id="Vector 7">
<use xlink:href="#path14_stroke" transform="translate(-1451.87 -47.9915)"/>
</g>
<g id="Vector 8">
<use xlink:href="#path15_stroke" transform="translate(-1665 -49.0897)"/>
</g>
</g>
</g>
</g>
</g>
<defs>
<path id="path0_fill" d="M 0 114.328L 0 0L 165.418 0L 165.418 114.536L 0 114.328Z"/>
<path id="path1_fill" d="M 10.0253 0L 0 0L 0 103.727L 10.0253 103.727L 10.0253 0Z"/>
<path id="path2_fill" d="M 63.0759 17.7729C 35.3392 23.4269 9.50316 8.24551 0 0C 3.17468 30.349 34.3924 44.5188 49.6044 47.8101L 214.709 47.8101C 250.884 38.9133 262.642 12.3683 264 0.20787C 234.425 21.5769 208.025 20.4059 198.522 17.1493C 155.462 17.1146 68.9032 17.0661 67.1487 17.1493C 65.3943 17.2324 63.7025 17.5997 63.0759 17.7729Z"/>
<path id="path3_fill" d="M 129.911 65.7908L 0 65.7908C 29.9089 57.9749 55.6266 18.6737 64.7468 0C 92.2329 50.3045 119.642 64.8208 129.911 65.7908Z"/>
<path id="path4_fill" d="M 50.1266 0L 0 0L 0 102.48L 7.51899 102.48L 7.51899 13.0958L 42.6076 13.0958L 42.6076 102.48L 50.1266 102.48L 50.1266 0Z"/>
<path id="path5_fill" d="M 211.576 10.1276L 0 10.1276C 8.35443 3.14317 12.3924 0.496295 13.3671 0.0459103C 74.4589 0.0112653 197.018 -0.0372377 198.522 0.0459103C 200.026 0.129058 207.851 6.80168 211.576 10.1276Z"/>
<path id="path6_fill" d="M 0 5.19675C 0 2.32666 2.32666 0 5.19675 0L 225.803 0C 228.673 0 231 2.32666 231 5.19675L 231 5.19675C 231 8.06683 228.673 10.3935 225.803 10.3935L 5.19675 10.3935C 2.32667 10.3935 0 8.06683 0 5.19675L 0 5.19675Z"/>
<path id="path7_fill" d="M 32.1475 175.727L 32.1475 140.581C 26.6177 112.465 4.73203 86.765 2.19356 75.7821C -9.788 23.9427 30.2274 2.56268 51.7327 0C 106.111 8.78633 108.952 55.2806 103.576 75.7821C 97.8157 97.7479 76.6943 127.036 74.7742 140.581L 74.7742 175.727L 51.7327 191.103L 32.1475 175.727Z"/>
<path id="path8_stroke" d="M 32.1475 175.727L 28.6475 175.727L 28.6475 177.428L 29.9862 178.479L 32.1475 175.727ZM 51.7327 191.103L 49.5714 193.856L 51.5661 195.422L 53.6755 194.014L 51.7327 191.103ZM 74.7742 175.727L 76.717 178.638L 78.2742 177.599L 78.2742 175.727L 74.7742 175.727ZM 103.576 75.7821L 106.962 76.6699L 106.962 76.6699L 103.576 75.7821ZM 51.7327 0L 52.291 -3.45519L 51.8062 -3.53352L 51.3186 -3.47541L 51.7327 0ZM 2.19356 75.7821L -1.21654 76.5702L -1.21654 76.5702L 2.19356 75.7821ZM 28.6475 140.581L 28.6475 175.727L 35.6475 175.727L 35.6475 140.581L 28.6475 140.581ZM 29.9862 178.479L 49.5714 193.856L 53.894 188.35L 34.3088 172.974L 29.9862 178.479ZM 53.6755 194.014L 76.717 178.638L 72.8315 172.815L 49.79 188.191L 53.6755 194.014ZM 78.2742 175.727L 78.2742 140.581L 71.2742 140.581L 71.2742 175.727L 78.2742 175.727ZM 74.7742 137.081L 32.1475 137.081L 32.1475 144.081L 74.7742 144.081L 74.7742 137.081ZM 78.2396 141.072C 78.6403 138.245 80.1156 134.284 82.4438 129.316C 84.744 124.405 87.7043 118.864 90.8268 112.98C 97.0711 101.211 103.959 88.0298 106.962 76.6699L 100.191 74.8942C 97.4324 85.5001 90.8798 97.9453 84.6433 109.699C 81.5254 115.575 78.4853 121.269 76.1052 126.346C 73.7531 131.365 71.8682 136.144 71.3089 140.09L 78.2396 141.072ZM 106.962 76.6699C 109.808 65.8146 110.483 48.2247 103.257 32.069C 95.9225 15.6684 80.6007 1.11906 52.291 -3.45519L 51.1744 3.45519C 77.2427 7.66727 90.5307 20.7583 96.8672 34.9268C 103.313 49.3401 102.72 65.2481 100.191 74.8942L 106.962 76.6699ZM 51.3186 -3.47541C 39.8565 -2.10953 23.6678 4.19898 11.832 17.0402C -0.170568 30.0624 -7.4596 49.5591 -1.21654 76.5702L 5.60366 74.9939C -0.134845 50.1657 6.59303 33.0527 16.9791 21.7844C 27.532 10.3351 42.1036 4.67221 52.1469 3.47541L 51.3186 -3.47541ZM -1.21654 76.5702C -0.450183 79.8859 1.65835 83.9742 4.12377 88.315C 6.64915 92.7604 9.79892 97.8866 13.0118 103.496C 19.45 114.734 26.0745 127.666 28.7133 141.257L 35.5817 139.906C 32.6907 125.38 25.6075 111.404 19.0858 100.017C 15.8187 94.3142 12.6755 89.199 10.2105 84.858C 7.68565 80.4124 6.10654 77.1696 5.60366 74.9939L -1.21654 76.5702Z"/>
<path id="path9_stroke" d="M -1.70741 3.05528L 31.7027 21.7262L 35.1176 15.6157L 1.70741 -3.05528L -1.70741 3.05528Z"/>
<path id="path10_stroke" d="M -2.96215 1.86432L 17.7752 34.813L 23.6995 31.0844L 2.96215 -1.86432L -2.96215 1.86432Z"/>
<path id="path11_stroke" d="M -3.5 0L -3.5 39.5385L 3.5 39.5385L 3.5 0L -3.5 0Z"/>
<path id="path12_stroke" d="M 3.03386 35.7922L 22.6191 1.7452L 16.5514 -1.7452L -3.03386 32.3018L 3.03386 35.7922Z"/>
<path id="path13_stroke" d="M 1.85141 21.6412L 31.8053 2.97023L 28.1025 -2.97023L -1.85141 15.7007L 1.85141 21.6412Z"/>
<path id="path14_stroke" d="M 0 3.5L 36.8664 3.5L 36.8664 -3.5L 0 -3.5L 0 3.5Z"/>
<path id="path15_stroke" d="M 39.1705 -3.5L 0 -3.5L 0 3.5L 39.1705 3.5L 39.1705 -3.5Z"/>
</defs>
</svg>
