<svg width="319" height="53" viewBox="0 0 319 53" version="1.1" xmlns="http://www.w3.org/2000/svg" xmlns:xlink="http://www.w3.org/1999/xlink">
<title>Group</title>
<desc>Created using Figma</desc>
<g id="Canvas" transform="translate(431 1715)">
<g id="Group">
<g id="Vector 2">
<use xlink:href="#path0_fill" transform="translate(-418.325 -1714)" fill="#FFFFFF"/>
<use xlink:href="#path1_stroke" transform="translate(-418.325 -1714)" fill="#FFFFFF"/>
</g>
<g id="Rectangle 4">
<use xlink:href="#path2_fill" transform="translate(-409.946 -1689.52)" fill="#FFFFFF"/>
</g>
<g id="Rectangle 4">
<use xlink:href="#path3_fill" transform="translate(-411.359 -1693.99)" fill="#FFFFFF"/>
</g>
<g id="Rectangle 3">
<use xlink:href="#path4_fill" transform="translate(-416.164 -1693.99)" fill="#FFFFFF"/>
</g>
<g id="Rectangle 3.1">
<use xlink:href="#path5_fill" transform="translate(-418.99 -1693.99)" fill="#FFFFFF"/>
</g>
<g id="Rectangle 3.2">
<use xlink:href="#path6_fill" transform="translate(-421.816 -1693.99)" fill="#FFFFFF"/>
</g>
<g id="Rectangle 3.3">
<use xlink:href="#path7_fill" transform="translate(-420.403 -1673.87)" fill="#FFFFFF"/>
</g>
<g id="Rectangle 3.17">
<use xlink:href="#path8_fill" transform="translate(-394.403 -1673.87)" fill="#FFFFFF"/>
</g>
<g id="Rectangle 3.4">
<use xlink:href="#path7_fill" transform="translate(-420.403 -1693.99)" fill="#FFFFFF"/>
</g>
<g id="Rectangle 3.5">
<use xlink:href="#path8_fill" transform="translate(-418.142 -1693.99)" fill="#FFFFFF"/>
</g>
<g id="Rectangle 3.6">
<use xlink:href="#path8_fill" transform="translate(-418.142 -1673.87)" fill="#FFFFFF"/>
</g>
<g id="Rectangle 3.18">
<use xlink:href="#path7_fill" transform="translate(-411.359 -1673.87)" fill="#FFFFFF"/>
</g>
<g id="Rectangle 3.19">
<use xlink:href="#path7_fill" transform="translate(-403.447 -1673.87)" fill="#FFFFFF"/>
</g>
<g id="Rectangle 3.16">
<use xlink:href="#path8_fill" transform="translate(-397.229 -1673.87)" fill="#FFFFFF"/>
</g>
<g id="Rectangle 3.7">
<use xlink:href="#path4_fill" transform="translate(-402.034 -1693.99)" fill="#FFFFFF"/>
</g>
<g id="Rectangle 3.8">
<use xlink:href="#path5_fill" transform="translate(-395.251 -1693.99)" fill="#FFFFFF"/>
</g>
<g id="Rectangle 3.13">
<use xlink:href="#path5_fill" transform="translate(-392.425 -1693.99)" fill="#FFFFFF"/>
</g>
<g id="Rectangle 3.10">
<use xlink:href="#path7_fill" transform="translate(-400.338 -1693.99)" fill="#FFFFFF"/>
</g>
<g id="Rectangle 3.11">
<use xlink:href="#path8_fill" transform="translate(-397.229 -1693.99)" fill="#FFFFFF"/>
</g>
<g id="Rectangle 3.15">
<use xlink:href="#path8_fill" transform="translate(-394.403 -1693.99)" fill="#FFFFFF"/>
</g>
<g id="Rectangle 2.1">
<use xlink:href="#path9_fill" transform="translate(-428.033 -1669.68)" fill="#FFFFFF"/>
</g>
<g id="Vector 2">
<use xlink:href="#path10_fill" transform="translate(-426.337 -1672.47)" fill="#FFFFFF"/>
</g>
<g id="Vector 3">
<use xlink:href="#path11_fill" transform="translate(-431 -1703.36)" fill="#FFFFFF"/>
</g>
<g id="House of Blockchain">
<use xlink:href="#path12_fill" transform="translate(-381 -1692)" fill="#FFFFFF"/>
</g>
</g>
</g>
<defs>
<path id="path0_fill" d="M 1.11429 11.4483L 0 12L 23.5394 12L 22.4251 11.4483L 20.3358 10.3448L 18.3858 8.82759L 16.993 7.44828L 15.7394 6.06897L 14.0679 3.72414L 12.8144 1.93103L 11.7001 0L 10.7251 1.51724L 9.75006 3.17241L 8.77505 4.82759L 7.52148 6.34483L 6.2679 7.72414L 5.01432 8.82759L 3.90002 9.65517L 2.36787 10.8966L 1.11429 11.4483Z"/>
<path id="path1_stroke" d="M 0 12L -0.221861 11.5519L 0 12.5L 0 12ZM 1.11429 11.4483L 0.912878 10.9906L 0.902547 10.9952L 0.892432 11.0002L 1.11429 11.4483ZM 2.36787 10.8966L 2.56929 11.3542L 2.63059 11.3272L 2.68263 11.285L 2.36787 10.8966ZM 3.90002 9.65517L 3.6019 9.25377L 3.59345 9.26005L 3.58526 9.26668L 3.90002 9.65517ZM 5.01432 8.82759L 5.31244 9.22899L 5.3291 9.21661L 5.34468 9.2029L 5.01432 8.82759ZM 6.2679 7.72414L 6.59826 8.09945L 6.61917 8.08104L 6.63791 8.06042L 6.2679 7.72414ZM 7.52148 6.34483L 7.89149 6.68111L 7.89942 6.67239L 7.90693 6.6633L 7.52148 6.34483ZM 8.77505 4.82759L 9.16051 5.14606L 9.18575 5.11551L 9.20587 5.08136L 8.77505 4.82759ZM 9.75006 3.17241L 10.1809 3.42619L 10.1809 3.42619L 9.75006 3.17241ZM 10.7251 1.51724L 10.3044 1.24693L 10.2992 1.2551L 10.2943 1.26347L 10.7251 1.51724ZM 11.7001 0L 12.1331 -0.249901L 11.723 -0.960605L 11.2794 -0.270308L 11.7001 0ZM 12.8144 1.93103L 12.3813 2.18094L 12.3921 2.19973L 12.4046 2.21752L 12.8144 1.93103ZM 14.0679 3.72414L 13.6581 4.01064L 13.6608 4.01436L 14.0679 3.72414ZM 15.7394 6.06897L 15.3322 6.35919L 15.3494 6.38332L 15.3694 6.40525L 15.7394 6.06897ZM 16.993 7.44828L 16.6229 7.78456L 16.6318 7.7943L 16.6411 7.80355L 16.993 7.44828ZM 18.3858 8.82759L 18.034 9.18286L 18.0552 9.20387L 18.0788 9.22221L 18.3858 8.82759ZM 20.3358 10.3448L 20.0288 10.7394L 20.0635 10.7664L 20.1023 10.787L 20.3358 10.3448ZM 22.4251 11.4483L 22.1916 11.8906L 22.2033 11.8964L 22.4251 11.4483ZM 23.5394 12L 23.5394 12.5L 23.7613 11.5519L 23.5394 12ZM 0.221861 12.4481L 1.33615 11.8964L 0.892432 11.0002L -0.221861 11.5519L 0.221861 12.4481ZM 1.31571 11.9059L 2.56929 11.3542L 2.16646 10.4389L 0.912878 10.9906L 1.31571 11.9059ZM 2.68263 11.285L 4.21479 10.0437L 3.58526 9.26668L 2.05311 10.5081L 2.68263 11.285ZM 4.19815 10.0566L 5.31244 9.22899L 4.7162 8.42618L 3.6019 9.25377L 4.19815 10.0566ZM 5.34468 9.2029L 6.59826 8.09945L 5.93753 7.34883L 4.68395 8.45227L 5.34468 9.2029ZM 6.63791 8.06042L 7.89149 6.68111L 7.15146 6.00854L 5.89788 7.38785L 6.63791 8.06042ZM 7.90693 6.6633L 9.16051 5.14606L 8.3896 4.50911L 7.13602 6.02636L 7.90693 6.6633ZM 9.20587 5.08136L 10.1809 3.42619L 9.31925 2.91864L 8.34424 4.57381L 9.20587 5.08136ZM 10.1809 3.42619L 11.1559 1.77102L 10.2943 1.26347L 9.31925 2.91864L 10.1809 3.42619ZM 11.1457 1.78755L 12.1207 0.270308L 11.2794 -0.270308L 10.3044 1.24693L 11.1457 1.78755ZM 11.267 0.249901L 12.3813 2.18094L 13.2474 1.68113L 12.1331 -0.249901L 11.267 0.249901ZM 12.4046 2.21752L 13.6582 4.01062L 14.4777 3.43765L 13.2242 1.64455L 12.4046 2.21752ZM 13.6608 4.01436L 15.3322 6.35919L 16.1465 5.77874L 14.4751 3.43391L 13.6608 4.01436ZM 15.3694 6.40525L 16.6229 7.78456L 17.363 7.11199L 16.1094 5.73268L 15.3694 6.40525ZM 16.6411 7.80355L 18.034 9.18286L 18.7376 8.47231L 17.3448 7.093L 16.6411 7.80355ZM 18.0788 9.22221L 20.0288 10.7394L 20.6429 9.95021L 18.6929 8.43297L 18.0788 9.22221ZM 20.1023 10.787L 22.1916 11.8904L 22.6586 11.0062L 20.5693 9.9027L 20.1023 10.787ZM 22.2033 11.8964L 23.3176 12.4481L 23.7613 11.5519L 22.647 11.0002L 22.2033 11.8964ZM 23.5394 11.5L 0 11.5L 0 12.5L 23.5394 12.5L 23.5394 11.5Z"/>
<path id="path2_fill" d="M 0 0L 6.49977 0L 6.49977 16.7702L 0 16.7702L 0 0Z"/>
<path id="path3_fill" d="M 0 0L 9.32576 0L 9.32576 2.23602L 0 2.23602L 0 0Z"/>
<path id="path4_fill" d="M 0 0L 4.80418 0L 4.80418 21.2422L 0 21.2422L 0 0Z"/>
<path id="path5_fill" d="M 0 0L 0.847796 0L 0.847796 21.2422L 0 21.2422L 0 0Z"/>
<path id="path6_fill" d="M 0 0L 1.41299 0L 1.41299 21.2422L 0 21.2422L 0 0Z"/>
<path id="path7_fill" d="M 0 0L 1.41299 0L 1.41299 1.11801L 0 1.11801L 0 0Z"/>
<path id="path8_fill" d="M 0 0L 1.97819 0L 1.97819 1.11801L 0 1.11801L 0 0Z"/>
<path id="path9_fill" d="M 0 0L 42.955 0L 42.955 1.67702L 0 1.67702L 0 0Z"/>
<path id="path10_fill" d="M 37.1617 0L 2.26079 0L 0 1.81677L 39.1399 1.81677L 37.1617 0Z"/>
<path id="path11_fill" d="M 0.847796 0.419255L 0 0L 0 0.978261L 0.423898 2.65528L 1.41299 4.3323L 2.40209 5.31056L 3.24989 6.28882L 4.66288 7.12733L 5.93457 7.82609L 7.34757 8.38509L 8.61926 8.9441L 39.7051 8.9441L 40.6942 8.52485L 42.2485 7.96584L 43.5202 7.40683L 44.6506 6.70807L 45.781 5.86957L 46.6288 5.03106L 47.3353 4.05279L 48.0418 3.07453L 48.4657 1.81677L 48.8896 0.838509L 48.8896 0L 48.607 0L 47.7592 0.559006L 46.4875 1.25776L 45.3571 1.81677L 44.0854 2.37578L 42.3898 3.07453L 40.9768 3.35404L 37.7269 3.35404L 36.7378 3.07453L 12.4343 3.07453L 10.5975 3.35404L 8.76056 3.35404L 7.48887 3.35404L 6.35847 3.07453L 5.22808 2.65528L 4.09768 2.23602L 3.10859 1.81677L 2.11949 1.25776L 0.847796 0.419255Z"/>
<path id="path12_fill" d="M 22.8766 6.2L 22.8766 23L 18.9886 23L 18.9886 16.112L 11.3566 16.112L 11.3566 23L 7.46856 23L 7.46856 6.2L 11.3566 6.2L 11.3566 12.824L 18.9886 12.824L 18.9886 6.2L 22.8766 6.2ZM 32.7314 23.192C 31.3714 23.192 30.1474 22.912 29.0594 22.352C 27.9874 21.776 27.1474 20.984 26.5394 19.976C 25.9314 18.968 25.6274 17.824 25.6274 16.544C 25.6274 15.264 25.9314 14.12 26.5394 13.112C 27.1474 12.104 27.9874 11.32 29.0594 10.76C 30.1474 10.184 31.3714 9.896 32.7314 9.896C 34.0914 9.896 35.3074 10.184 36.3794 10.76C 37.4514 11.32 38.2914 12.104 38.8994 13.112C 39.5074 14.12 39.8114 15.264 39.8114 16.544C 39.8114 17.824 39.5074 18.968 38.8994 19.976C 38.2914 20.984 37.4514 21.776 36.3794 22.352C 35.3074 22.912 34.0914 23.192 32.7314 23.192ZM 32.7314 20.12C 33.6914 20.12 34.4754 19.8 35.0834 19.16C 35.7074 18.504 36.0194 17.632 36.0194 16.544C 36.0194 15.456 35.7074 14.592 35.0834 13.952C 34.4754 13.296 33.6914 12.968 32.7314 12.968C 31.7714 12.968 30.9794 13.296 30.3554 13.952C 29.7314 14.592 29.4194 15.456 29.4194 16.544C 29.4194 17.632 29.7314 18.504 30.3554 19.16C 30.9794 19.8 31.7714 20.12 32.7314 20.12ZM 55.3219 10.088L 55.3219 23L 51.7699 23L 51.7699 21.464C 51.2739 22.024 50.6819 22.456 49.9939 22.76C 49.3059 23.048 48.5619 23.192 47.7619 23.192C 46.0659 23.192 44.7219 22.704 43.7299 21.728C 42.7379 20.752 42.2419 19.304 42.2419 17.384L 42.2419 10.088L 45.9859 10.088L 45.9859 16.832C 45.9859 18.912 46.8579 19.952 48.6019 19.952C 49.4979 19.952 50.2179 19.664 50.7619 19.088C 51.3059 18.496 51.5779 17.624 51.5779 16.472L 51.5779 10.088L 55.3219 10.088ZM 63.1345 23.192C 62.0625 23.192 61.0145 23.064 59.9905 22.808C 58.9665 22.536 58.1505 22.2 57.5425 21.8L 58.7905 19.112C 59.3665 19.48 60.0625 19.784 60.8785 20.024C 61.6945 20.248 62.4945 20.36 63.2785 20.36C 64.8625 20.36 65.6545 19.968 65.6545 19.184C 65.6545 18.816 65.4385 18.552 65.0065 18.392C 64.5745 18.232 63.9105 18.096 63.0145 17.984C 61.9585 17.824 61.0865 17.64 60.3985 17.432C 59.7105 17.224 59.1105 16.856 58.5985 16.328C 58.1025 15.8 57.8545 15.048 57.8545 14.072C 57.8545 13.256 58.0865 12.536 58.5505 11.912C 59.0305 11.272 59.7185 10.776 60.6145 10.424C 61.5265 10.072 62.5985 9.896 63.8305 9.896C 64.7425 9.896 65.6465 10 66.5425 10.208C 67.4545 10.4 68.2065 10.672 68.7985 11.024L 67.5505 13.688C 66.4145 13.048 65.1745 12.728 63.8305 12.728C 63.0305 12.728 62.4305 12.84 62.0305 13.064C 61.6305 13.288 61.4305 13.576 61.4305 13.928C 61.4305 14.328 61.6465 14.608 62.0785 14.768C 62.5105 14.928 63.1985 15.08 64.1425 15.224C 65.1985 15.4 66.0625 15.592 66.7345 15.8C 67.4065 15.992 67.9905 16.352 68.4865 16.88C 68.9825 17.408 69.2305 18.144 69.2305 19.088C 69.2305 19.888 68.9905 20.6 68.5105 21.224C 68.0305 21.848 67.3265 22.336 66.3985 22.688C 65.4865 23.024 64.3985 23.192 63.1345 23.192ZM 84.1885 16.592C 84.1885 16.64 84.1645 16.976 84.1165 17.6L 74.3485 17.6C 74.5245 18.4 74.9405 19.032 75.5965 19.496C 76.2525 19.96 77.0685 20.192 78.0445 20.192C 78.7165 20.192 79.3085 20.096 79.8205 19.904C 80.3485 19.696 80.8365 19.376 81.2845 18.944L 83.2765 21.104C 82.0605 22.496 80.2845 23.192 77.9485 23.192C 76.4925 23.192 75.2045 22.912 74.0845 22.352C 72.9645 21.776 72.1005 20.984 71.4925 19.976C 70.8845 18.968 70.5805 17.824 70.5805 16.544C 70.5805 15.28 70.8765 14.144 71.4685 13.136C 72.0765 12.112 72.9005 11.32 73.9405 10.76C 74.9965 10.184 76.1725 9.896 77.4685 9.896C 78.7325 9.896 79.8765 10.168 80.9005 10.712C 81.9245 11.256 82.7245 12.04 83.3005 13.064C 83.8925 14.072 84.1885 15.248 84.1885 16.592ZM 77.4925 12.728C 76.6445 12.728 75.9325 12.968 75.3565 13.448C 74.7805 13.928 74.4285 14.584 74.3005 15.416L 80.6605 15.416C 80.5325 14.6 80.1805 13.952 79.6045 13.472C 79.0285 12.976 78.3245 12.728 77.4925 12.728ZM 99.622 23.192C 98.262 23.192 97.038 22.912 95.95 22.352C 94.878 21.776 94.038 20.984 93.43 19.976C 92.822 18.968 92.518 17.824 92.518 16.544C 92.518 15.264 92.822 14.12 93.43 13.112C 94.038 12.104 94.878 11.32 95.95 10.76C 97.038 10.184 98.262 9.896 99.622 9.896C 100.982 9.896 102.198 10.184 103.27 10.76C 104.342 11.32 105.182 12.104 105.79 13.112C 106.398 14.12 106.702 15.264 106.702 16.544C 106.702 17.824 106.398 18.968 105.79 19.976C 105.182 20.984 104.342 21.776 103.27 22.352C 102.198 22.912 100.982 23.192 99.622 23.192ZM 99.622 20.12C 100.582 20.12 101.366 19.8 101.974 19.16C 102.598 18.504 102.91 17.632 102.91 16.544C 102.91 15.456 102.598 14.592 101.974 13.952C 101.366 13.296 100.582 12.968 99.622 12.968C 98.662 12.968 97.87 13.296 97.246 13.952C 96.622 14.592 96.31 15.456 96.31 16.544C 96.31 17.632 96.622 18.504 97.246 19.16C 97.87 19.8 98.662 20.12 99.622 20.12ZM 113.309 10.376L 116.621 10.376L 116.621 13.256L 113.405 13.256L 113.405 23L 109.661 23L 109.661 13.256L 107.669 13.256L 107.669 10.376L 109.661 10.376L 109.661 9.8C 109.661 8.328 110.093 7.16 110.957 6.296C 111.837 5.432 113.069 5 114.653 5C 115.213 5 115.741 5.064 116.237 5.192C 116.749 5.304 117.173 5.472 117.509 5.696L 116.525 8.408C 116.093 8.104 115.589 7.952 115.013 7.952C 113.877 7.952 113.309 8.576 113.309 9.824L 113.309 10.376ZM 137.883 14.264C 138.843 14.568 139.595 15.08 140.139 15.8C 140.683 16.504 140.955 17.376 140.955 18.416C 140.955 19.888 140.379 21.024 139.227 21.824C 138.091 22.608 136.427 23 134.235 23L 125.547 23L 125.547 6.2L 133.755 6.2C 135.803 6.2 137.371 6.592 138.459 7.376C 139.563 8.16 140.115 9.224 140.115 10.568C 140.115 11.384 139.915 12.112 139.515 12.752C 139.131 13.392 138.587 13.896 137.883 14.264ZM 129.411 9.128L 129.411 13.088L 133.275 13.088C 134.235 13.088 134.963 12.92 135.459 12.584C 135.955 12.248 136.203 11.752 136.203 11.096C 136.203 10.44 135.955 9.952 135.459 9.632C 134.963 9.296 134.235 9.128 133.275 9.128L 129.411 9.128ZM 133.947 20.072C 134.971 20.072 135.739 19.904 136.251 19.568C 136.779 19.232 137.043 18.712 137.043 18.008C 137.043 16.616 136.011 15.92 133.947 15.92L 129.411 15.92L 129.411 20.072L 133.947 20.072ZM 143.634 5.192L 147.378 5.192L 147.378 23L 143.634 23L 143.634 5.192ZM 156.997 23.192C 155.637 23.192 154.413 22.912 153.325 22.352C 152.253 21.776 151.413 20.984 150.805 19.976C 150.197 18.968 149.893 17.824 149.893 16.544C 149.893 15.264 150.197 14.12 150.805 13.112C 151.413 12.104 152.253 11.32 153.325 10.76C 154.413 10.184 155.637 9.896 156.997 9.896C 158.357 9.896 159.573 10.184 160.645 10.76C 161.717 11.32 162.557 12.104 163.165 13.112C 163.773 14.12 164.077 15.264 164.077 16.544C 164.077 17.824 163.773 18.968 163.165 19.976C 162.557 20.984 161.717 21.776 160.645 22.352C 159.573 22.912 158.357 23.192 156.997 23.192ZM 156.997 20.12C 157.957 20.12 158.741 19.8 159.349 19.16C 159.973 18.504 160.285 17.632 160.285 16.544C 160.285 15.456 159.973 14.592 159.349 13.952C 158.741 13.296 157.957 12.968 156.997 12.968C 156.037 12.968 155.245 13.296 154.621 13.952C 153.997 14.592 153.685 15.456 153.685 16.544C 153.685 17.632 153.997 18.504 154.621 19.16C 155.245 19.8 156.037 20.12 156.997 20.12ZM 172.82 23.192C 171.444 23.192 170.204 22.912 169.1 22.352C 168.012 21.776 167.156 20.984 166.532 19.976C 165.924 18.968 165.62 17.824 165.62 16.544C 165.62 15.264 165.924 14.12 166.532 13.112C 167.156 12.104 168.012 11.32 169.1 10.76C 170.204 10.184 171.444 9.896 172.82 9.896C 174.18 9.896 175.364 10.184 176.372 10.76C 177.396 11.32 178.14 12.128 178.604 13.184L 175.7 14.744C 175.028 13.56 174.06 12.968 172.796 12.968C 171.82 12.968 171.012 13.288 170.372 13.928C 169.732 14.568 169.412 15.44 169.412 16.544C 169.412 17.648 169.732 18.52 170.372 19.16C 171.012 19.8 171.82 20.12 172.796 20.12C 174.076 20.12 175.044 19.528 175.7 18.344L 178.604 19.928C 178.14 20.952 177.396 21.752 176.372 22.328C 175.364 22.904 174.18 23.192 172.82 23.192ZM 186.21 17.936L 184.41 19.712L 184.41 23L 180.665 23L 180.665 5.192L 184.41 5.192L 184.41 15.272L 189.882 10.088L 194.346 10.088L 188.97 15.56L 194.826 23L 190.289 23L 186.21 17.936ZM 202.187 23.192C 200.811 23.192 199.571 22.912 198.467 22.352C 197.379 21.776 196.523 20.984 195.899 19.976C 195.291 18.968 194.987 17.824 194.987 16.544C 194.987 15.264 195.291 14.12 195.899 13.112C 196.523 12.104 197.379 11.32 198.467 10.76C 199.571 10.184 200.811 9.896 202.187 9.896C 203.547 9.896 204.731 10.184 205.739 10.76C 206.763 11.32 207.507 12.128 207.971 13.184L 205.067 14.744C 204.395 13.56 203.427 12.968 202.163 12.968C 201.187 12.968 200.379 13.288 199.739 13.928C 199.099 14.568 198.779 15.44 198.779 16.544C 198.779 17.648 199.099 18.52 199.739 19.16C 200.379 19.8 201.187 20.12 202.163 20.12C 203.443 20.12 204.411 19.528 205.067 18.344L 207.971 19.928C 207.507 20.952 206.763 21.752 205.739 22.328C 204.731 22.904 203.547 23.192 202.187 23.192ZM 217.881 9.896C 219.481 9.896 220.769 10.376 221.745 11.336C 222.737 12.296 223.233 13.72 223.233 15.608L 223.233 23L 219.489 23L 219.489 16.184C 219.489 15.16 219.265 14.4 218.817 13.904C 218.369 13.392 217.721 13.136 216.873 13.136C 215.929 13.136 215.177 13.432 214.617 14.024C 214.057 14.6 213.777 15.464 213.777 16.616L 213.777 23L 210.033 23L 210.033 5.192L 213.777 5.192L 213.777 11.432C 214.273 10.936 214.873 10.56 215.577 10.304C 216.281 10.032 217.049 9.896 217.881 9.896ZM 231.834 9.896C 233.834 9.896 235.37 10.376 236.442 11.336C 237.514 12.28 238.05 13.712 238.05 15.632L 238.05 23L 234.546 23L 234.546 21.392C 233.842 22.592 232.53 23.192 230.61 23.192C 229.618 23.192 228.754 23.024 228.018 22.688C 227.298 22.352 226.746 21.888 226.362 21.296C 225.978 20.704 225.786 20.032 225.786 19.28C 225.786 18.08 226.234 17.136 227.13 16.448C 228.042 15.76 229.442 15.416 231.33 15.416L 234.306 15.416C 234.306 14.6 234.058 13.976 233.562 13.544C 233.066 13.096 232.322 12.872 231.33 12.872C 230.642 12.872 229.962 12.984 229.29 13.208C 228.634 13.416 228.074 13.704 227.61 14.072L 226.266 11.456C 226.97 10.96 227.81 10.576 228.786 10.304C 229.778 10.032 230.794 9.896 231.834 9.896ZM 231.546 20.672C 232.186 20.672 232.754 20.528 233.25 20.24C 233.746 19.936 234.098 19.496 234.306 18.92L 234.306 17.6L 231.738 17.6C 230.202 17.6 229.434 18.104 229.434 19.112C 229.434 19.592 229.618 19.976 229.986 20.264C 230.37 20.536 230.89 20.672 231.546 20.672ZM 241.439 10.088L 245.183 10.088L 245.183 23L 241.439 23L 241.439 10.088ZM 243.311 8.288C 242.623 8.288 242.063 8.088 241.631 7.688C 241.199 7.288 240.983 6.792 240.983 6.2C 240.983 5.608 241.199 5.112 241.631 4.712C 242.063 4.312 242.623 4.112 243.311 4.112C 243.999 4.112 244.559 4.304 244.991 4.688C 245.423 5.072 245.639 5.552 245.639 6.128C 245.639 6.752 245.423 7.272 244.991 7.688C 244.559 8.088 243.999 8.288 243.311 8.288ZM 256.506 9.896C 258.106 9.896 259.394 10.376 260.37 11.336C 261.362 12.296 261.858 13.72 261.858 15.608L 261.858 23L 258.114 23L 258.114 16.184C 258.114 15.16 257.89 14.4 257.442 13.904C 256.994 13.392 256.346 13.136 255.498 13.136C 254.554 13.136 253.802 13.432 253.242 14.024C 252.682 14.6 252.402 15.464 252.402 16.616L 252.402 23L 248.658 23L 248.658 10.088L 252.234 10.088L 252.234 11.6C 252.73 11.056 253.346 10.64 254.082 10.352C 254.818 10.048 255.626 9.896 256.506 9.896Z"/>
</defs>
</svg>
