<svg width="239" height="239" viewBox="0 0 239 239" version="1.1" xmlns="http://www.w3.org/2000/svg" xmlns:xlink="http://www.w3.org/1999/xlink">
<title>Group 2</title>
<desc>Created using Figma</desc>
<g id="Canvas" transform="translate(154 665)">
<g id="Group 2">
<g id="Ellipse 2">
<use xlink:href="#path0_fill" transform="translate(-154 -665)" fill="#59B307"/>
</g>
<g id="Group">
<g id="Vector">
<use xlink:href="#path1_fill" transform="translate(-86.8167 -541.025)" fill="#FFFFFF"/>
</g>
<g id="Ellipse 2">
<use xlink:href="#path2_fill" transform="translate(-61 -602)" fill="#FFFFFF"/>
</g>
</g>
</g>
</g>
<defs>
<path id="path0_fill" d="M 239 119.5C 239 185.498 185.498 239 119.5 239C 53.502 239 0 185.498 0 119.5C 0 53.502 53.502 0 119.5 0C 185.498 0 239 53.502 239 119.5Z"/>
<path id="path1_fill" d="M 3.31664 16.5253C 11.3166 2.52525 23.9833 -0.308081 29.3166 0.0252523C 36.1166 1.62526 33.15 5.35858 30.8167 7.02524C 9.21665 9.42524 7.81665 24.3586 9.81665 31.5252L 94.8167 31.5252C 98.0166 12.7252 82.4833 7.35857 74.3167 7.02524C 68.3167 3.82524 71.8167 1.02525 74.3167 0.0252523C 83.8167 0.525267 90.3167 2.02524 100.817 16.5253C 109.217 28.1253 101.65 36.0252 96.8167 38.5252L 8.81664 38.5252C 3.64998 37.0252 -4.68336 30.5253 3.31664 16.5253Z"/>
<path id="path2_fill" d="M 53 32C 53 49.6731 41.1355 64 26.5 64C 11.8645 64 0 49.6731 0 32C 0 14.3269 11.8645 0 26.5 0C 41.1355 0 53 14.3269 53 32Z"/>
</defs>
</svg>
